<?xml version="1.0" standalone="no"?>
<!DOCTYPE svg PUBLIC "-//W3C//DTD SVG 20010904//EN"
 "http://www.w3.org/TR/2001/REC-SVG-20010904/DTD/svg10.dtd">
<svg version="1.0" xmlns="http://www.w3.org/2000/svg"
 width="169.000000pt" height="156.000000pt" viewBox="0 0 169.000000 156.000000"
 preserveAspectRatio="xMidYMid meet">

<g transform="translate(0.000000,156.000000) scale(0.100000,-0.100000)"
fill="#000000" stroke="none">
<path d="M807 1380 c-48 -43 -73 -48 -140 -29 -50 14 -82 -6 -98 -61 -16 -54
-40 -77 -91 -85 -24 -4 -53 -13 -66 -21 -21 -14 -23 -22 -20 -86 l2 -70 -52
-45 c-59 -51 -63 -69 -27 -128 30 -49 31 -79 5 -128 -33 -61 -27 -81 35 -127
l55 -41 0 -58 c0 -78 17 -99 95 -114 62 -13 70 -19 118 -107 19 -35 9 -34 137
-15 41 6 49 4 90 -29 25 -20 54 -36 66 -36 12 0 42 18 67 40 48 43 73 48 140
29 52 -14 80 5 102 71 18 55 30 65 90 75 22 4 50 14 63 22 21 13 23 20 20 85
l-2 70 52 45 c59 51 63 69 27 128 -30 49 -31 90 -5 130 35 52 27 79 -35 125
l-55 41 0 58 c0 78 -17 99 -95 114 -62 13 -70 19 -118 107 -19 35 -9 34 -137
15 -41 -6 -49 -4 -90 29 -25 20 -54 36 -66 36 -12 0 -42 -18 -67 -40z m212
-169 c80 -25 136 -59 193 -118 86 -89 123 -193 116 -328 -4 -71 -10 -95 -41
-158 -161 -326 -623 -326 -784 0 -60 121 -59 263 3 388 90 180 319 276 513
216z"/>
<path d="M620 934 c-66 -45 -66 -78 0 -134 41 -34 48 -45 40 -60 -11 -21 -53
-34 -81 -25 -23 8 -25 31 -4 39 8 3 15 12 15 20 0 22 -40 5 -64 -27 -19 -26
-19 -27 -1 -47 34 -38 161 -20 179 25 14 36 4 56 -43 92 -58 44 -63 66 -21 88
48 25 80 17 43 -11 -14 -10 -15 -15 -6 -25 19 -19 55 17 51 50 -3 23 -8 26
-43 29 -25 2 -49 -4 -65 -14z"/>
<path d="M760 917 c0 -27 -7 -41 -31 -62 l-32 -26 22 -23 c25 -26 27 -56 6
-95 -18 -37 -71 -61 -132 -61 -44 -1 -47 -2 -29 -15 26 -20 119 -19 156 0 32
17 60 61 60 96 0 13 -10 33 -21 45 l-22 23 32 26 c37 32 43 81 11 110 -20 18
-20 17 -20 -18z"/>
<path d="M1044 922 c-83 -60 -138 -187 -98 -226 26 -27 103 -17 149 19 56 42
64 87 8 47 -79 -55 -123 -61 -123 -16 0 52 87 174 124 174 18 0 22 -25 6 -35
-15 -9 -12 -35 5 -35 20 0 47 44 43 72 -5 37 -63 37 -114 0z"/>
<path d="M1190 927 c0 -43 -18 -76 -52 -97 -27 -16 -29 -20 -12 -20 11 0 25
-5 31 -11 18 -18 63 30 70 76 4 32 1 44 -16 59 -21 19 -21 19 -21 -7z"/>
<path d="M1032 811 c-12 -21 -22 -46 -22 -55 0 -14 4 -15 23 -5 12 6 32 23 44
38 19 24 20 27 6 44 -22 24 -26 22 -51 -22z"/>
<path d="M1160 747 c-22 -46 -87 -87 -151 -96 -52 -6 -53 -7 -30 -20 56 -31
175 10 217 74 14 21 15 31 6 50 -15 33 -24 31 -42 -8z"/>
</g>
</svg>
